<?xml version="1.0" standalone="no"?>
<!DOCTYPE svg PUBLIC "-//W3C//DTD SVG 20010904//EN"
 "http://www.w3.org/TR/2001/REC-SVG-20010904/DTD/svg10.dtd">
<svg version="1.0" xmlns="http://www.w3.org/2000/svg"
 width="888.000000pt" height="300.000000pt" viewBox="0 0 888.000000 300.000000"
 preserveAspectRatio="xMidYMid meet">

<g transform="translate(0.000000,300.000000) scale(0.100000,-0.100000)"
fill="#000000" stroke="none">
<path d="M0 1575 l0 -1425 38 5 c20 3 134 17 252 30 409 47 1870 215 3170 365
1146 132 2816 324 4790 550 333 39 611 70 618 70 9 0 12 190 12 915 l0 915
-4440 0 -4440 0 0 -1425z m1841 1129 c39 -4 61 -12 86 -34 41 -36 40 -36 -29
-6 -59 26 -120 37 -120 21 0 -5 31 -21 68 -34 38 -13 72 -28 75 -34 4 -5 13
-8 21 -5 8 3 22 0 32 -8 17 -12 18 -14 3 -20 -10 -3 -17 -12 -17 -19 0 -7 -9
-15 -20 -18 -15 -4 -20 -14 -20 -36 0 -17 -2 -31 -5 -31 -40 0 -155 88 -133
101 9 6 8 13 -6 28 -11 12 -25 21 -33 21 -7 0 -36 11 -63 25 -35 18 -58 23
-82 19 -27 -4 -30 -3 -15 6 14 9 16 15 6 26 -10 12 -2 14 47 15 33 0 68 4 78
8 12 4 31 2 47 -6 15 -7 51 -16 80 -19z m-336 16 c-3 -5 -13 -10 -21 -10 -8 0
-12 5 -9 10 3 6 13 10 21 10 8 0 12 -4 9 -10z m-135 -20 c-7 -4 -21 -5 -32 -2
-13 3 -16 7 -8 12 7 4 21 5 32 2 13 -3 16 -7 8 -12z m95 -12 c6 -4 -5 -8 -22
-8 -18 0 -33 4 -33 9 0 11 32 20 40 12 3 -3 10 -9 15 -13z m-195 -22 c0 -2 -7
-6 -15 -10 -8 -3 -15 -1 -15 4 0 6 7 10 15 10 8 0 15 -2 15 -4z m85 -6 c3 -5
1 -10 -4 -10 -6 0 -11 5 -11 10 0 6 2 10 4 10 3 0 8 -4 11 -10z m-158 -55 c1
-1 -23 -1 -54 -2 -30 -1 -52 2 -47 7 14 13 67 17 84 6 8 -6 16 -11 17 -11z
m154 -20 c5 4 9 -1 9 -9 0 -9 5 -16 11 -16 23 0 -11 -27 -51 -40 -114 -38 -76
-97 83 -127 16 -3 27 -12 27 -22 0 -24 38 -45 55 -31 8 6 11 18 8 26 -3 8 3
24 13 35 13 15 15 22 6 31 -16 16 -15 68 1 68 29 0 82 -21 100 -40 10 -12 25
-19 33 -16 8 3 20 9 28 12 8 3 30 -11 54 -35 22 -22 51 -43 66 -47 47 -11 30
-31 -31 -37 -64 -5 -133 -33 -133 -53 0 -10 6 -9 28 2 37 19 47 18 49 -6 1
-14 -10 -25 -43 -39 -42 -19 -58 -40 -31 -42 6 0 -2 -7 -20 -14 -36 -16 -73
-64 -73 -93 0 -13 -16 -31 -42 -49 -45 -31 -52 -52 -34 -115 5 -18 4 -28 -3
-28 -6 0 -13 11 -17 24 -3 14 -14 32 -24 41 -21 19 -114 32 -124 16 -4 -6 -23
-8 -51 -4 -41 5 -47 3 -79 -29 -49 -49 -55 -82 -24 -137 31 -57 46 -66 92 -57
26 5 40 14 46 32 6 14 17 24 30 24 24 0 25 -9 5 -57 -21 -50 -20 -53 28 -53
54 0 67 -13 67 -68 0 -56 15 -85 41 -77 13 5 19 2 19 -10 0 -34 -91 21 -115
68 -6 12 -21 27 -35 34 -68 34 -138 64 -157 67 -26 5 -112 50 -139 73 -12 10
-29 34 -38 54 -10 20 -32 54 -49 75 -18 22 -38 51 -45 67 -13 30 -42 37 -43
10 0 -10 -9 1 -19 25 -11 23 -23 42 -29 42 -9 0 -21 36 -28 85 -2 17 4 58 13
92 13 47 20 60 32 56 10 -4 13 -1 10 8 -3 8 -13 14 -23 14 -14 0 -18 9 -20 45
-2 44 -4 54 -18 97 -13 36 -75 51 -113 26 -13 -8 -24 -11 -24 -5 0 11 64 62
78 62 5 0 26 18 46 40 24 26 44 39 54 36 47 -14 75 -17 151 -19 55 -1 84 -6
90 -15 5 -8 27 -13 62 -12 30 1 78 -1 107 -3 55 -3 79 10 69 37 -10 25 5 25
30 0 13 -13 29 -22 34 -19z m106 29 c-3 -3 -12 -4 -19 -1 -8 3 -5 6 6 6 11 1
17 -2 13 -5z m142 -25 c7 -10 21 -19 30 -19 21 0 62 -29 43 -30 -7 0 -22 5
-33 10 -15 8 -19 7 -19 -5 0 -8 6 -15 13 -16 6 0 3 -4 -8 -8 -11 -4 -34 -3
-52 2 -26 8 -30 13 -22 24 14 17 -4 41 -46 60 -29 13 -27 13 25 7 38 -4 59
-12 69 -25z m-169 -14 c0 -8 -9 -15 -20 -15 -13 0 -18 5 -14 15 4 8 12 15 20
15 8 0 14 -7 14 -15z m-10 -51 c0 -2 -7 -4 -15 -4 -8 0 -15 4 -15 10 0 5 7 7
15 4 8 -4 15 -8 15 -10z m700 7 c0 -5 -9 -7 -20 -4 -11 3 -20 7 -20 9 0 2 9 4
20 4 11 0 20 -4 20 -9z m-255 -236 c19 -13 18 -14 -17 -15 -38 0 -43 5 -32 34
4 10 9 12 17 5 7 -5 21 -16 32 -24z m535 -10 c14 -19 14 -19 -2 -6 -10 7 -18
18 -18 24 0 6 1 8 3 6 1 -2 9 -13 17 -24z m-666 -34 c3 -5 -1 -11 -9 -14 -9
-4 -12 -1 -8 9 6 16 10 17 17 5z m6134 -93 l3 -96 29 15 c50 24 92 26 127 4
37 -23 53 -81 53 -191 0 -56 3 -70 15 -70 8 0 15 -9 15 -20 0 -18 -7 -20 -75
-20 -62 0 -75 3 -75 16 0 9 9 18 20 21 18 5 20 14 20 104 0 94 -1 99 -25 115
-23 15 -30 15 -63 2 l-37 -14 -3 -101 c-3 -99 -2 -102 20 -105 13 -2 24 -11
26 -20 3 -16 -6 -18 -82 -18 -70 0 -86 3 -86 15 0 9 11 20 25 25 l25 10 -2
187 c-3 186 -3 188 -25 191 -37 5 -30 40 10 45 84 11 82 13 85 -95z m-4138 74
c43 -35 4 -94 -50 -77 -32 10 -38 55 -10 77 12 10 26 18 30 18 4 0 18 -8 30
-18z m-612 -9 c-2 -11 -14 -19 -31 -21 -15 -2 -27 -6 -27 -10 0 -15 85 -282
90 -282 3 0 29 74 58 165 47 149 55 165 75 165 20 0 28 -16 77 -165 30 -91 57
-165 60 -165 7 0 81 250 80 273 0 11 -8 17 -25 17 -18 0 -25 5 -25 20 0 18 7
20 80 20 72 0 80 -2 80 -19 0 -13 -8 -21 -22 -23 -20 -3 -31 -27 -91 -210 -62
-189 -70 -208 -90 -208 -20 0 -29 17 -77 159 -30 88 -57 157 -60 155 -3 -3
-28 -74 -56 -157 -42 -125 -54 -153 -71 -155 -22 -3 -14 -22 -122 278 -40 112
-52 136 -70 138 -13 2 -21 11 -21 23 0 17 8 19 96 19 86 0 95 -2 92 -17z
m2485 3 c54 -22 72 -51 72 -113 0 -49 -3 -58 -31 -83 -17 -15 -38 -30 -45 -32
-10 -3 -7 -12 12 -35 14 -17 32 -51 39 -77 19 -69 52 -86 62 -31 5 30 32 25
36 -7 2 -19 -5 -36 -23 -54 -22 -22 -32 -25 -63 -20 -46 7 -65 29 -92 111 -27
81 -41 95 -91 95 l-40 0 3 -77 c3 -78 3 -78 33 -83 18 -3 31 -12 33 -23 3 -15
-7 -17 -98 -17 -91 0 -101 2 -98 18 2 9 13 18 26 20 22 3 22 4 22 193 l0 189
-25 0 c-18 0 -25 5 -25 20 0 19 7 20 130 20 88 0 141 -4 163 -14z m-3163 -38
c0 -12 -28 -9 -36 3 -3 6 0 15 7 20 13 7 28 -5 29 -23z m1490 -48 l0 -50 50 0
c43 0 50 -3 50 -20 0 -17 -7 -20 -50 -20 l-50 0 0 -100 c0 -86 3 -103 20 -120
23 -23 43 -18 58 16 14 28 42 32 42 5 0 -27 -36 -68 -66 -75 -39 -10 -92 11
-109 44 -10 20 -15 60 -15 130 0 93 -1 100 -20 100 -13 0 -20 7 -20 20 0 11 6
20 14 20 21 0 46 40 46 72 0 23 4 28 25 28 23 0 25 -3 25 -50z m1010 0 l0 -50
50 0 c43 0 50 -3 50 -20 0 -17 -7 -20 -50 -20 l-50 0 0 -100 c0 -86 3 -103 20
-120 23 -23 43 -18 58 16 14 28 42 32 42 5 0 -27 -36 -68 -66 -75 -39 -10 -92
11 -109 44 -10 20 -15 60 -15 130 0 93 -1 100 -20 100 -13 0 -20 7 -20 20 0
11 6 20 14 20 21 0 46 40 46 72 0 23 4 28 25 28 23 0 25 -3 25 -50z m-2482 -9
c4 -27 -12 -21 -29 10 -9 18 -8 20 8 17 10 -2 19 -14 21 -27z m1270 -43 c8 -8
12 -54 12 -140 0 -121 1 -128 20 -128 13 0 20 -7 20 -20 0 -18 -7 -20 -80 -20
-73 0 -80 2 -80 20 0 13 7 20 19 20 26 0 31 19 31 115 0 96 -5 115 -31 115
-12 0 -19 7 -19 19 0 19 8 22 81 29 8 1 20 -3 27 -10z m470 -4 c8 -14 13 -14
60 1 42 14 57 15 87 5 52 -17 65 -50 65 -165 0 -88 2 -97 20 -102 11 -3 20
-14 20 -24 0 -17 -8 -19 -75 -19 -68 0 -75 2 -75 20 0 13 7 20 20 20 19 0 20
7 20 97 0 128 -18 150 -99 122 l-31 -11 0 -104 c0 -97 1 -104 20 -104 13 0 20
-7 20 -20 0 -18 -7 -20 -80 -20 -67 0 -80 3 -80 16 0 9 9 18 20 21 19 5 20 14
20 119 0 107 -1 114 -20 114 -13 0 -20 7 -20 19 0 15 8 21 38 24 20 2 42 4 49
5 7 1 16 -5 21 -14z m536 -9 c31 -21 56 -73 56 -119 l0 -36 -111 0 -111 0 7
-27 c8 -34 32 -62 62 -74 27 -10 79 6 87 27 6 16 42 19 51 4 10 -16 -40 -58
-84 -70 -56 -15 -108 -3 -148 34 -85 78 -53 242 53 276 38 12 108 4 138 -15z
m1248 15 c55 -16 88 -60 88 -121 l0 -49 -105 0 c-105 0 -105 0 -105 -24 0 -14
10 -37 23 -51 29 -35 88 -37 121 -6 25 24 56 28 56 7 0 -23 -56 -64 -97 -70
-70 -12 -140 20 -167 77 -43 92 2 211 89 236 41 12 54 12 97 1z m352 -11 c46
-21 48 -89 3 -89 -29 0 -49 21 -45 47 3 20 -27 29 -68 19 -17 -5 -24 -13 -24
-30 0 -20 14 -32 74 -65 105 -57 130 -101 86 -149 -54 -57 -200 -48 -229 14
-9 20 -7 28 9 44 24 24 30 24 55 6 11 -8 16 -20 13 -34 -4 -15 0 -22 16 -26
37 -10 64 -7 81 10 15 15 15 18 -2 36 -10 11 -43 33 -73 48 -68 34 -93 62 -93
100 0 74 104 111 197 69z m322 2 c33 -15 45 -28 59 -64 9 -24 15 -55 13 -68
-3 -23 -6 -24 -110 -27 -118 -3 -122 -6 -93 -61 26 -51 99 -60 134 -17 17 20
51 21 51 1 0 -42 -90 -81 -158 -69 -50 9 -108 68 -118 119 -15 82 33 175 101
194 47 14 77 12 121 -8z m325 9 c57 -16 63 -31 69 -153 4 -79 9 -112 18 -115
7 -2 16 5 19 17 7 28 43 28 43 1 0 -27 -43 -70 -69 -70 -11 0 -33 11 -49 25
-26 22 -31 23 -42 10 -21 -25 -86 -38 -126 -25 -99 33 -76 138 39 175 69 23
97 41 97 65 0 25 -42 43 -79 35 -22 -5 -26 -11 -26 -38 0 -29 -3 -32 -32 -35
-28 -3 -33 1 -39 23 -11 44 49 91 121 94 11 1 36 -4 56 -9z m269 -5 c15 -13
20 -13 50 1 47 24 84 10 88 -33 2 -24 -2 -34 -17 -43 -25 -13 -61 2 -61 25 0
19 -9 19 -32 -2 -15 -13 -18 -32 -18 -114 l0 -98 32 -3 c22 -2 34 -9 36 -20 3
-16 -6 -18 -92 -18 -79 0 -96 3 -96 15 0 9 11 20 25 25 24 9 25 12 25 115 0
103 -1 106 -25 115 -14 5 -25 16 -25 24 0 13 11 17 79 24 8 1 22 -5 31 -13z
m420 -14 c14 -10 29 -30 35 -45 7 -22 5 -30 -13 -48 -18 -19 -25 -20 -48 -9
-23 10 -26 16 -21 46 5 28 2 35 -14 40 -29 10 -74 -12 -88 -41 -6 -14 -11 -51
-11 -84 0 -47 5 -64 23 -86 32 -36 83 -36 112 0 24 30 55 34 55 8 0 -26 -41
-61 -84 -73 -67 -18 -141 13 -171 71 -34 65 -6 192 47 221 61 33 133 33 178 0z
m-5125 -173 c17 -96 21 -209 11 -306 -7 -62 -12 -75 -33 -89 -15 -10 -28 -12
-33 -7 -17 17 -33 115 -37 224 -6 172 -6 178 10 210 11 21 14 46 10 80 -4 34
-1 53 8 63 12 13 16 8 32 -41 10 -32 25 -92 32 -134z m-1655 22 l34 -45 -37
34 c-20 19 -37 42 -37 50 0 8 1 12 3 10 2 -2 18 -24 37 -49z m690 -126 c0 -2
-9 -4 -20 -4 -11 0 -20 4 -20 9 0 5 9 7 20 4 11 -3 20 -7 20 -9z m81 -35 c-16
-6 -28 -6 -35 1 -7 7 1 10 25 9 32 0 33 -1 10 -10z m-21 -159 c5 0 12 5 15 11
5 7 14 4 26 -7 14 -12 36 -17 79 -17 51 1 60 -2 60 -17 0 -21 60 -63 113 -80
41 -13 66 -45 48 -63 -17 -17 -13 -29 9 -22 11 4 20 2 20 -4 0 -6 7 -8 15 -4
9 3 23 -2 33 -10 9 -8 28 -18 42 -22 14 -3 38 -17 53 -31 26 -22 28 -27 17
-58 -6 -19 -30 -56 -53 -82 -23 -26 -53 -70 -67 -98 -20 -42 -34 -55 -75 -75
-27 -13 -73 -46 -102 -74 -68 -64 -102 -87 -132 -87 -17 0 -22 -4 -17 -15 6
-17 -47 -55 -77 -55 -16 0 -77 -53 -77 -67 0 -3 -11 -14 -25 -25 -14 -11 -23
-24 -20 -29 4 -5 -1 -9 -11 -9 -14 0 -16 7 -11 36 3 20 14 45 23 55 9 10 13
22 10 28 -4 6 5 32 19 59 31 59 65 174 65 219 0 25 -7 36 -35 53 -38 24 -53
47 -86 134 -11 31 -24 56 -29 56 -12 0 -19 39 -8 46 5 3 6 18 3 33 -5 24 0 32
30 55 41 32 46 68 13 103 -22 23 -15 31 12 13 16 -10 50 14 50 34 0 6 12 19
28 28 23 14 27 15 30 2 2 -7 7 -14 12 -14z m276 -67 c-11 -11 -19 6 -11 24 8
17 8 17 12 0 3 -10 2 -21 -1 -24z m-467 -166 c1 -5 -3 -5 -9 -2 -5 3 -10 16
-9 28 0 21 1 21 9 2 5 -11 9 -24 9 -28z"/>
<path d="M1298 2297 c-45 -24 -49 -39 -10 -37 45 3 47 2 47 -37 0 -31 4 -38
20 -38 14 0 20 7 20 24 0 14 6 26 13 29 6 2 12 -1 12 -7 0 -6 7 -11 15 -11 17
0 20 -16 5 -25 -18 -11 -11 -25 13 -25 12 0 33 9 47 20 14 11 30 20 37 20 15
0 36 37 25 44 -5 3 -23 -4 -41 -15 -18 -11 -36 -17 -40 -13 -3 4 0 9 7 11 33
12 4 43 -40 43 -12 0 -26 6 -32 14 -19 24 -59 25 -98 3z"/>
<path d="M5440 2105 l0 -95 39 0 c84 0 121 32 121 106 0 55 -36 84 -105 84
l-55 0 0 -95z"/>
<path d="M4607 2038 c-14 -13 -28 -35 -31 -50 l-6 -28 70 0 70 0 0 30 c0 34
-30 70 -59 70 -11 0 -31 -10 -44 -22z"/>
<path d="M5907 2053 c-18 -5 -47 -52 -47 -78 0 -12 14 -15 71 -15 l72 0 -7 33
c-6 32 -38 68 -60 66 -6 -1 -19 -3 -29 -6z"/>
<path d="M6546 2038 c-14 -13 -28 -35 -32 -50 l-6 -28 71 0 c64 0 71 2 71 20
0 32 -21 68 -44 74 -31 8 -33 8 -60 -16z"/>
<path d="M6920 1928 c-51 -26 -73 -66 -50 -92 36 -44 110 5 110 74 0 22 -4 40
-8 40 -4 0 -28 -10 -52 -22z"/>
<path d="M5210 450 l0 -120 30 0 c32 0 42 23 15 34 -12 4 -15 24 -15 86 0 62
3 82 15 86 27 11 17 34 -15 34 l-30 0 0 -120z"/>
<path d="M5930 545 c0 -20 -5 -25 -26 -25 -61 0 -95 -55 -69 -115 15 -37 30
-43 103 -43 34 1 42 4 42 19 0 11 -4 19 -10 19 -6 0 -10 35 -10 85 0 69 -3 85
-15 85 -9 0 -15 -9 -15 -25z m-5 -105 c0 -28 -4 -36 -22 -38 -14 -2 -26 4 -33
17 -15 29 4 63 33 59 18 -2 22 -10 22 -38z"/>
<path d="M6383 554 c-4 -10 -2 -19 3 -21 5 -2 8 -41 6 -88 -3 -81 -2 -85 18
-85 20 0 21 4 18 102 -3 89 -5 103 -21 106 -9 2 -20 -4 -24 -14z"/>
<path d="M6970 465 l0 -105 48 0 c61 0 92 28 92 83 0 46 -28 77 -70 77 -25 0
-30 4 -30 25 0 18 -5 25 -20 25 -19 0 -20 -7 -20 -105z m95 -25 c0 -31 -3 -35
-27 -38 -26 -3 -28 -1 -28 31 0 40 7 49 35 45 16 -2 20 -10 20 -38z"/>
<path d="M7130 484 c0 -114 6 -123 76 -123 l55 1 -2 83 c-1 45 2 88 6 95 4 6
3 16 -3 22 -15 15 -44 1 -41 -19 3 -37 -3 -167 -8 -155 -2 6 -13 12 -24 12
-17 0 -19 8 -19 85 0 78 -2 85 -20 85 -18 0 -20 -7 -20 -86z"/>
<path d="M7683 554 c-4 -10 -2 -19 3 -21 5 -2 8 -41 6 -88 -3 -81 -2 -85 18
-85 20 0 21 4 18 102 -3 89 -5 103 -21 106 -9 2 -20 -4 -24 -14z"/>
<path d="M8270 555 c0 -8 5 -15 10 -15 6 0 10 -37 10 -90 0 -53 -4 -90 -10
-90 -5 0 -10 -7 -10 -15 0 -10 10 -15 30 -15 l30 0 0 120 0 120 -30 0 c-20 0
-30 -5 -30 -15z"/>
<path d="M5386 470 c-42 -104 -43 -110 -17 -110 12 0 21 9 25 25 5 21 12 25
45 25 31 0 40 -5 49 -25 11 -23 31 -32 44 -19 3 3 -11 47 -31 97 -52 128 -66
128 -115 7z m73 -12 c1 -5 -8 -8 -19 -8 -23 0 -24 4 -8 33 11 21 11 21 19 2 4
-11 8 -23 8 -27z"/>
<path d="M6660 460 c0 -93 1 -100 20 -100 16 0 20 7 20 35 0 30 3 35 24 35 33
0 76 37 76 66 0 40 -33 64 -90 64 l-50 0 0 -100z m95 35 c0 -14 -8 -21 -27
-23 -24 -3 -28 0 -28 23 0 23 4 26 28 23 19 -2 27 -9 27 -23z"/>
<path d="M7597 554 c-4 -4 -7 -16 -7 -26 0 -10 -7 -18 -15 -18 -8 0 -15 -7
-15 -15 0 -9 7 -18 15 -21 10 -4 15 -20 15 -49 0 -49 17 -68 57 -63 34 4 38
32 6 36 -19 3 -23 10 -23 38 0 24 5 34 15 34 8 0 15 9 15 20 0 11 -6 20 -14
20 -8 0 -16 10 -18 22 -3 22 -19 33 -31 22z"/>
<path d="M5568 508 c-30 -23 -40 -65 -24 -103 16 -37 48 -52 91 -41 33 9 22
36 -16 36 -35 0 -55 30 -39 60 7 13 21 20 41 20 24 0 30 4 27 18 -4 21 -56 28
-80 10z"/>
<path d="M5681 494 c-27 -34 -27 -74 -1 -107 18 -23 28 -26 75 -25 35 1 56 6
59 15 3 7 1 13 -4 13 -6 0 -10 29 -10 65 l0 65 -49 0 c-42 0 -53 -4 -70 -26z
m79 -53 c0 -27 -5 -41 -16 -45 -23 -9 -44 12 -44 44 0 33 7 40 37 40 20 0 23
-5 23 -39z"/>
<path d="M6010 500 c-13 -13 -20 -33 -20 -60 0 -63 53 -98 114 -74 26 10 6 34
-29 34 -19 0 -37 5 -40 10 -4 6 12 10 39 10 45 0 46 0 46 33 0 61 -67 90 -110
47z m70 -35 c0 -9 -9 -15 -25 -15 -24 0 -32 10 -18 23 12 13 43 7 43 -8z"/>
<path d="M6140 439 c0 -72 2 -79 20 -79 16 0 19 8 22 58 3 50 6 57 26 60 21 3
22 0 22 -57 0 -54 2 -61 20 -61 16 0 19 8 22 58 3 50 6 57 26 60 21 3 22 0 22
-57 0 -54 2 -61 20 -61 18 0 20 7 20 63 0 49 -4 68 -18 80 -21 19 -57 22 -67
7 -4 -6 -13 -7 -23 -1 -10 5 -39 9 -65 9 l-47 0 0 -79z"/>
<path d="M6469 502 c-30 -25 -33 -90 -4 -122 24 -27 88 -25 93 3 3 13 -4 17
-32 17 -26 0 -36 5 -41 20 -12 38 3 60 41 60 28 0 35 4 32 18 -5 25 -59 28
-89 4z"/>
<path d="M6810 462 c0 -83 16 -102 86 -100 57 2 75 11 55 31 -6 6 -11 37 -11
69 0 51 -2 58 -20 58 -18 0 -20 -7 -20 -59 0 -58 -9 -74 -37 -64 -9 3 -13 25
-13 64 0 52 -2 59 -20 59 -18 0 -20 -7 -20 -58z"/>
<path d="M7309 502 c-30 -25 -33 -90 -4 -122 24 -27 88 -25 93 3 3 13 -4 17
-32 17 -26 0 -36 5 -41 20 -12 38 3 60 41 60 28 0 35 4 32 18 -5 25 -59 28
-89 4z"/>
<path d="M7432 497 c-28 -30 -30 -89 -3 -116 15 -15 32 -19 76 -18 51 1 56 3
51 22 -3 11 -6 46 -6 78 l0 57 -48 0 c-38 0 -53 -5 -70 -23z m78 -56 c0 -27
-5 -41 -16 -45 -23 -9 -44 12 -44 44 0 33 7 40 37 40 20 0 23 -5 23 -39z"/>
<path d="M7773 505 c-30 -21 -38 -66 -18 -104 28 -54 103 -54 131 0 39 76 -44
152 -113 104z m77 -45 c14 -26 -3 -60 -30 -60 -24 0 -43 34 -35 60 8 27 51 26
65 0z"/>
<path d="M7910 439 c0 -72 2 -79 20 -79 17 0 20 7 20 49 0 51 18 78 45 67 11
-4 15 -21 15 -61 0 -48 2 -55 20 -55 17 0 20 7 20 53 0 28 -6 63 -13 77 -11
22 -20 25 -70 27 l-57 2 0 -80z"/>
<path d="M8082 508 c-24 -24 -14 -58 23 -79 44 -26 44 -32 0 -27 -24 3 -36 -1
-40 -11 -13 -33 70 -44 98 -13 26 28 20 51 -18 73 -37 22 -39 41 -4 32 24 -7
45 17 26 29 -19 12 -72 9 -85 -4z"/>
</g>
</svg>
